<svg width="26" height="26" viewBox="0 0 26 26" fill="none" xmlns="http://www.w3.org/2000/svg">
<path d="M13.0489 18.631C11.9212 18.631 10.9409 18.376 10.1079 17.866C9.28058 17.3503 8.64024 16.6222 8.18691 15.6815C7.73924 14.7408 7.51541 13.6302 7.51541 12.3495C7.51541 11.0462 7.75058 9.92133 8.22091 8.975C8.69691 8.023 9.35991 7.28917 10.2099 6.7735C11.0599 6.25783 12.0516 6 13.1849 6C13.9159 6 14.5817 6.11617 15.1824 6.3485C15.7831 6.58083 16.3044 6.89817 16.7464 7.3005C17.1941 7.70283 17.5426 8.159 17.7919 8.669C18.0469 9.17333 18.1857 9.6975 18.2084 10.2415H15.5904C15.5167 9.8505 15.3694 9.4935 15.1484 9.1705C14.9331 8.8475 14.6554 8.58967 14.3154 8.397C13.9754 8.19867 13.5787 8.0995 13.1254 8.0995C12.5814 8.0995 12.0884 8.24117 11.6464 8.5245C11.2044 8.80217 10.8559 9.247 10.6009 9.859C10.3459 10.471 10.2184 11.2785 10.2184 12.2815C10.2184 13.0918 10.3006 13.7662 10.4649 14.3045C10.6349 14.8428 10.8616 15.2707 11.1449 15.588C11.4282 15.8997 11.7512 16.1207 12.1139 16.251C12.4766 16.3813 12.8477 16.4465 13.2274 16.4465C13.5901 16.4465 13.9131 16.387 14.1964 16.268C14.4854 16.1433 14.7319 15.9847 14.9359 15.792C15.1399 15.5993 15.3014 15.3897 15.4204 15.163C15.5394 14.9307 15.6159 14.704 15.6499 14.483L15.7434 13.735H13.2019V12.018L18.3444 12.0435V18.461H16.6529V16.8545C16.4432 17.1322 16.1826 17.4098 15.8709 17.6875C15.5649 17.9595 15.1824 18.1862 14.7234 18.3675C14.2701 18.5432 13.7119 18.631 13.0489 18.631Z" fill="#0F172A"/>
<rect x="25.8598" y="13.0435" width="2" height="5.94261" transform="rotate(137.003 25.8598 13.0435)" fill="#00CEEC"/>
<rect x="21.9399" y="16.9724" width="2" height="4.3806" transform="rotate(-135 21.9399 16.9724)" fill="#00CEEC"/>
<rect y="12.6261" width="2" height="5.94261" transform="rotate(-42.997 0 12.6261)" fill="#00CEEC"/>
<rect x="3.91986" y="8.69714" width="2" height="4.3806" transform="rotate(45 3.91986 8.69714)" fill="#00CEEC"/>
</svg>
